<svg xmlns="http://www.w3.org/2000/svg" viewBox="0 0 1504 1010" font-family="'Courier Prime','Courier New',monospace">
  <title>Scatter Lab — data pipeline</title>
  <defs>
    <filter id="hs" x="-5%" y="-5%" width="115%" height="115%">
      <feDropShadow dx="5" dy="5" stdDeviation="0" flood-color="#111111" flood-opacity="1"/>
    </filter>
    <marker id="aB" viewBox="0 0 10 10" refX="8" refY="5" markerWidth="7" markerHeight="7" orient="auto-start-reverse">
      <path d="M0,0 L10,5 L0,10 Z" fill="#111111"/>
    </marker>
    <marker id="aR" viewBox="0 0 10 10" refX="8" refY="5" markerWidth="7" markerHeight="7" orient="auto-start-reverse">
      <path d="M0,0 L10,5 L0,10 Z" fill="#EB1A26"/>
    </marker>
  </defs>
  <style>
    text { fill:#111111; }
    .wt { fill:#ffffff; }
    .lane { font-size:13px; font-weight:700; letter-spacing:2px; }
    .bt   { font-size:14px; font-weight:700; }
    .bt12 { font-size:12px; font-weight:700; }
    .bt18 { font-size:18px; font-weight:700; }
    .b12  { font-size:12px; }
    .c10  { font-size:10.5px; }
    .n11  { font-size:11px; fill:#555555; }
    .n10  { font-size:10.5px; fill:#555555; }
    .red12{ font-size:12px; font-weight:700; fill:#EB1A26; }
    .red10{ font-size:10.5px; font-weight:700; fill:#EB1A26; }
    .box  { fill:#ffffff; stroke:#111111; stroke-width:2.5; }
    .flow { stroke:#111111; stroke-width:2.5; fill:none; }
    .dash { stroke-dasharray:7 5; }
  </style>

  <rect x="0" y="0" width="1504" height="1010" fill="#ffffff"/>

  <!-- title row -->
  <rect x="32" y="22" width="22" height="22" fill="#0045AD" stroke="#111111" stroke-width="2"/>
  <circle cx="78" cy="33" r="12" fill="#EB1A26" stroke="#111111" stroke-width="2"/>
  <path d="M106,45 L118,21 L130,45 Z" fill="#FFD600" stroke="#111111" stroke-width="2"/>
  <text x="152" y="41" font-size="21" font-weight="700" letter-spacing="2">SCATTER LAB — DATA PIPELINE</text>
  <text x="1480" y="40" text-anchor="end" class="n11">system diagram 01/03 · 02–03 = the assistant</text>

  <!-- browser boundary -->
  <rect x="24" y="70" width="1464" height="896" fill="none" stroke="#111111" stroke-width="2.5" stroke-dasharray="12 7"/>
  <rect x="48" y="54" width="612" height="32" fill="#111111"/>
  <text x="354" y="75" text-anchor="middle" class="wt" font-size="12" font-weight="700" letter-spacing="1">ALL COMPUTE IN THE BROWSER — NO BACKEND · DATA NEVER LEAVES THE MACHINE</text>

  <!-- lane headers -->
  <text x="56"   y="146" class="lane">IMPORT</text>
  <text x="316"  y="146" class="lane">INGEST</text>
  <text x="608"  y="146" class="lane">THE TABLE</text>
  <text x="924"  y="146" class="lane">WORKBENCH</text>
  <text x="1264" y="146" class="lane">RENDER</text>
  <line x1="56"   y1="156" x2="274"  y2="156" stroke="#111111" stroke-width="2"/>
  <line x1="316"  y1="156" x2="568"  y2="156" stroke="#111111" stroke-width="2"/>
  <line x1="608"  y1="156" x2="884"  y2="156" stroke="#111111" stroke-width="2"/>
  <line x1="924"  y1="156" x2="1224" y2="156" stroke="#111111" stroke-width="2"/>
  <line x1="1264" y1="156" x2="1480" y2="156" stroke="#111111" stroke-width="2"/>

  <!-- ═══ LANE 1 · IMPORT ═══ -->
  <rect x="56" y="170" width="218" height="100" class="box" filter="url(#hs)"/>
  <rect x="70" y="184" width="20" height="20" fill="#EB1A26" stroke="#111111" stroke-width="2"/>
  <text x="80" y="199" text-anchor="middle" class="wt" font-size="12" font-weight="700">1</text>
  <text x="100" y="199" class="bt">FILE DROP</text>
  <text x="70" y="226" class="b12">.csv · .xlsx · .parquet</text>
  <text x="70" y="245" class="n11">sidebar step 1 — Data</text>

  <rect x="56" y="298" width="218" height="94" class="box" filter="url(#hs)"/>
  <text x="70" y="322" class="bt">WORKSPACE FILE</text>
  <text x="70" y="345" class="b12">.scatterlab.json</text>
  <text x="70" y="364" class="n11">full snapshot incl. tables</text>

  <!-- demo: a side note, not a stage -->
  <line x1="58" y1="424" x2="58" y2="490" stroke="#111111" stroke-width="2"/>
  <text x="70" y="438" class="n10">n.b. — a synthetic 300-row demo</text>
  <text x="70" y="454" class="n10">ships in-app for first runs; it</text>
  <text x="70" y="470" class="n10">loads through this same path</text>
  <text x="70" y="486" class="n10">(file drop, with loadings)</text>

  <!-- ═══ LANE 2 · INGEST ═══ -->
  <rect x="316" y="170" width="252" height="190" class="box" filter="url(#hs)"/>
  <text x="330" y="196" class="bt">PARSE — parse.ts</text>
  <text x="330" y="224" class="b12">PapaParse → .csv</text>
  <text x="330" y="244" class="b12">SheetJS   → .xlsx</text>
  <text x="330" y="264" class="b12">hyparquet → .parquet</text>
  <text x="330" y="292" class="n11">parsers lazy-loaded on demand</text>
  <text x="330" y="310" class="n11">typed cells · BigInt → number</text>

  <rect x="316" y="390" width="252" height="128" class="box" filter="url(#hs)"/>
  <text x="330" y="416" class="bt">NORMALIZE — table.ts</text>
  <text x="330" y="444" class="b12">'' · NaN · ±Inf → null</text>
  <text x="330" y="464" class="b12">bool → 0|1 · Date → ISO</text>
  <text x="330" y="484" class="b12">rows → one array per column</text>

  <!-- optional detour: components-file projection -->
  <rect x="316" y="570" width="252" height="140" fill="#ffffff" stroke="#111111" stroke-width="2.5" stroke-dasharray="8 5"/>
  <rect x="488" y="558" width="68" height="20" fill="#FFD600" stroke="#111111" stroke-width="2"/>
  <text x="522" y="572" text-anchor="middle" font-size="10" font-weight="700">OPTIONAL</text>
  <text x="330" y="596" class="bt">PCA PROJECTION — engine.ts</text>
  <text x="330" y="624" class="b12">impute → z-score → X·L</text>
  <text x="330" y="644" class="b12">adds PC1–3 from the loadings</text>
  <text x="330" y="668" class="n11">a detour — runs only when a</text>
  <text x="330" y="686" class="n11">components file rides along</text>

  <!-- ═══ LANE 3 · THE TABLE ═══ -->
  <rect x="608" y="170" width="276" height="280" fill="#FFD600" stroke="#111111" stroke-width="2.5" filter="url(#hs)"/>
  <text x="630" y="204" class="bt18">DataTable</text>
  <text x="630" y="224" font-size="11">the shared columnar object</text>
  <text x="630" y="254" class="b12">{ columns: string[]</text>
  <text x="630" y="274" class="b12">  data: { col → cells[] }</text>
  <text x="630" y="294" class="b12">  nRows: number }</text>
  <g stroke="#111111" stroke-width="1.5">
    <rect x="650" y="316" width="14" height="12" fill="#ffffff"/><rect x="650" y="331" width="14" height="12" fill="#ffffff"/><rect x="650" y="346" width="14" height="12" fill="#ffffff"/><rect x="650" y="361" width="14" height="12" fill="#ffffff"/>
    <rect x="672" y="316" width="14" height="12" fill="#ffffff"/><rect x="672" y="331" width="14" height="12" fill="#ffffff"/><rect x="672" y="346" width="14" height="12" fill="#ffffff"/><rect x="672" y="361" width="14" height="12" fill="#ffffff"/>
    <rect x="694" y="316" width="14" height="12" fill="#ffffff"/><rect x="694" y="331" width="14" height="12" fill="#ffffff"/><rect x="694" y="346" width="14" height="12" fill="#ffffff"/><rect x="694" y="361" width="14" height="12" fill="#ffffff"/>
    <rect x="716" y="316" width="14" height="12" fill="#ffffff"/><rect x="716" y="331" width="14" height="12" fill="#ffffff"/><rect x="716" y="346" width="14" height="12" fill="#ffffff"/><rect x="716" y="361" width="14" height="12" fill="#ffffff"/>
    <rect x="738" y="316" width="14" height="12" fill="#EB1A26"/><rect x="738" y="331" width="14" height="12" fill="#EB1A26"/><rect x="738" y="346" width="14" height="12" fill="#EB1A26"/><rect x="738" y="361" width="14" height="12" fill="#EB1A26"/>
  </g>
  <text x="630" y="396" font-size="11">new columns append in place —</text>
  <text x="630" y="414" font-size="11">scores become plottable vars</text>

  <rect x="608" y="490" width="276" height="150" class="box" filter="url(#hs)"/>
  <text x="622" y="516" class="bt">SESSION STATE — page.tsx</text>
  <text x="622" y="544" class="b12">datasets[] · one active</text>
  <text x="622" y="564" class="b12">axes auto-pick (PCs first)</text>
  <text x="622" y="584" class="b12">colorBy · shapeBy · camera</text>
  <text x="622" y="604" class="b12">transfer cols ⇄ datasets</text>
  <text x="622" y="624" class="n11">views ≤4 (3 pins + live) · notes</text>

  <rect x="608" y="680" width="276" height="120" class="box" filter="url(#hs)"/>
  <text x="622" y="706" class="bt">PERSIST — workspaces.ts</text>
  <text x="622" y="734" class="b12">IndexedDB 'scatter-lab'</text>
  <text x="622" y="754" class="b12">tables deduped by identity</text>
  <text x="622" y="774" class="b12">export ⇄ import .json file</text>

  <!-- key -->
  <text x="608" y="856" font-size="13" font-weight="700" letter-spacing="2">KEY</text>
  <line x1="608" y1="876" x2="648" y2="876" class="flow" marker-end="url(#aB)"/>
  <text x="660" y="880" font-size="11">data flow</text>
  <line x1="648" y1="900" x2="616" y2="900" stroke="#EB1A26" stroke-width="2.5" marker-end="url(#aR)"/>
  <text x="660" y="904" font-size="11">derived cols write back</text>
  <line x1="608" y1="924" x2="648" y2="924" class="flow dash"/>
  <text x="660" y="928" font-size="11">optional / sideload</text>

  <!-- ═══ LANE 4 · WORKBENCH (in the flow) ═══ -->
  <rect x="924" y="170" width="300" height="150" class="box" filter="url(#hs)"/>
  <text x="938" y="196" class="bt">THE WORKBENCH</text>
  <text x="938" y="214" class="n11">sidebar steps 2–6 · detailed below</text>
  <text x="938" y="242" class="b12">assign axes → analyze →</text>
  <text x="938" y="262" class="b12">view → cluster → export</text>
  <text x="938" y="290" class="red12">+PC · +Cluster → the table</text>

  <!-- ═══ LANE 5 · RENDER ═══ -->
  <rect x="1264" y="170" width="216" height="280" class="box" filter="url(#hs)"/>
  <text x="1278" y="196" class="bt">PLOT — Plotly WebGL</text>
  <rect x="1284" y="212" width="176" height="140" fill="#ffffff" stroke="#111111" stroke-width="1.5"/>
  <g stroke="#dddddd" stroke-width="1">
    <line x1="1328" y1="212" x2="1328" y2="352"/><line x1="1372" y1="212" x2="1372" y2="352"/><line x1="1416" y1="212" x2="1416" y2="352"/>
    <line x1="1284" y1="247" x2="1460" y2="247"/><line x1="1284" y1="282" x2="1460" y2="282"/><line x1="1284" y1="317" x2="1460" y2="317"/>
  </g>
  <g fill="#0045AD" stroke="#111111" stroke-width="1.25">
    <rect x="1294" y="302" width="8" height="8"/><rect x="1308" y="312" width="8" height="8"/><rect x="1302" y="288" width="8" height="8"/><rect x="1318" y="296" width="8" height="8"/><rect x="1312" y="326" width="8" height="8"/>
  </g>
  <g fill="#EB1A26" stroke="#111111" stroke-width="1.25">
    <circle cx="1355" cy="238" r="4.5"/><circle cx="1367" cy="232" r="4.5"/><circle cx="1361" cy="252" r="4.5"/><circle cx="1377" cy="244" r="4.5"/><circle cx="1349" cy="246" r="4.5"/>
  </g>
  <g fill="#FFD600" stroke="#111111" stroke-width="1.25">
    <path d="M1411,324 L1416,315 L1421,324 Z"/><path d="M1423,334 L1428,325 L1433,334 Z"/><path d="M1417,308 L1422,299 L1427,308 Z"/><path d="M1433,318 L1438,309 L1443,318 Z"/><path d="M1405,338 L1410,329 L1415,338 Z"/>
  </g>
  <text x="1456" y="348" text-anchor="end" font-size="9" fill="#555555">PC1</text>
  <text x="1288" y="224" font-size="9" fill="#555555">PC2</text>
  <text x="1278" y="380" class="b12">position x·y·z</text>
  <text x="1278" y="400" class="b12">color: palette|viridis</text>
  <text x="1278" y="420" class="b12">shape: ≤6 symbols</text>
  <text x="1278" y="440" class="n11">mute/hide via legend</text>

  <!-- ═══ INSIDE THE WORKBENCH · detail panel ═══ -->
  <rect x="924" y="470" width="556" height="390" class="box" filter="url(#hs)"/>
  <rect x="930" y="476" width="544" height="378" fill="none" stroke="#111111" stroke-width="1"/>
  <text x="944" y="502" font-size="13" font-weight="700" letter-spacing="2">INSIDE THE WORKBENCH</text>
  <text x="1454" y="502" text-anchor="end" class="n11">the sidebar, steps 2–6</text>
  <line x1="944" y1="514" x2="1454" y2="514" stroke="#111111" stroke-width="1"/>

  <rect x="944" y="528" width="20" height="20" fill="#0045AD" stroke="#111111" stroke-width="2"/>
  <text x="954" y="543" text-anchor="middle" class="wt" font-size="12" font-weight="700">2</text>
  <text x="974" y="543" class="bt12">VARIABLES</text>
  <text x="974" y="563" class="c10">every column profiled — kind · range · NA · mini-histogram</text>
  <text x="974" y="579" class="c10">one-click assign to X · Y · Z · colour · shape</text>

  <rect x="944" y="597" width="20" height="20" fill="#FFD600" stroke="#111111" stroke-width="2"/>
  <text x="954" y="612" text-anchor="middle" font-size="12" font-weight="700">3</text>
  <text x="974" y="612" class="bt12">PCA</text>
  <text x="1014" y="612" class="n10">pca.ts</text>
  <text x="974" y="632" class="c10">impute → corr matrix → Jacobi eigensolver → scores · scree</text>
  <text x="974" y="648" class="red10">+PC1_‹label›… +COMP_‹label› — appended to the table</text>

  <rect x="944" y="666" width="20" height="20" fill="#EB1A26" stroke="#111111" stroke-width="2"/>
  <text x="954" y="681" text-anchor="middle" class="wt" font-size="12" font-weight="700">4</text>
  <text x="974" y="681" class="bt12">VIEW</text>
  <text x="974" y="701" class="c10">2D/3D · camera · auto-rotate · axis labels · zoom window</text>

  <rect x="944" y="719" width="20" height="20" fill="#0045AD" stroke="#111111" stroke-width="2"/>
  <text x="954" y="734" text-anchor="middle" class="wt" font-size="12" font-weight="700">5</text>
  <text x="974" y="734" class="bt12">CLUSTER</text>
  <text x="1046" y="734" class="n10">cluster.ts</text>
  <text x="974" y="754" class="c10">on the plotted axes — z-score? → DBSCAN | k-means++ (seeded)</text>
  <text x="974" y="770" class="c10">silhouette-by-k · k-distance diagnostics</text>
  <text x="1240" y="770" class="red10">+Cluster → table</text>

  <rect x="944" y="788" width="20" height="20" fill="#FFD600" stroke="#111111" stroke-width="2"/>
  <text x="954" y="803" text-anchor="middle" font-size="12" font-weight="700">6</text>
  <text x="974" y="803" class="bt12">EXPORT &amp; PIN</text>
  <text x="974" y="823" class="c10">compare ≤4 views — 3 pins + the live plot, tiled in a grid</text>
  <rect x="974" y="830" width="64" height="22" fill="#ffffff" stroke="#111111" stroke-width="1.5"/>
  <text x="982" y="845" font-size="10">.png 2×</text>
  <rect x="1046" y="830" width="48" height="22" fill="#ffffff" stroke="#111111" stroke-width="1.5"/>
  <text x="1054" y="845" font-size="10">.gif</text>
  <rect x="1102" y="830" width="56" height="22" fill="#ffffff" stroke="#111111" stroke-width="1.5"/>
  <text x="1110" y="845" font-size="10">.html</text>
  <text x="1174" y="836" class="n10">captures the live plot ·</text>
  <text x="1174" y="849" class="n10">html = interactive, offline</text>

  <!-- ═══ THE ASSISTANT · opt-in mention ═══ -->
  <rect x="924" y="884" width="556" height="72" fill="#ffffff" stroke="#111111" stroke-width="2.5" stroke-dasharray="8 5"/>
  <text x="938" y="910" class="bt">THE ASSISTANT — OPT-IN COPILOT</text>
  <text x="938" y="932" class="n11">drives all of this through tool calls · sees metadata only — diagrams 02–03</text>
  <line x1="1202" y1="864" x2="1202" y2="880" class="flow dash" marker-start="url(#aB)" marker-end="url(#aB)"/>

  <!-- ═══ ARROWS ═══ -->
  <!-- file drop → parse -->
  <path d="M274,220 H308" class="flow" marker-end="url(#aB)"/>
  <!-- workspace file → persist (sideload) -->
  <path d="M274,374 H300 V946 H746 V808" class="flow dash" marker-end="url(#aB)"/>
  <text x="320" y="938" class="n10">workspace import → IndexedDB + state</text>
  <!-- parse → normalize -->
  <path d="M442,360 V382" class="flow" marker-end="url(#aB)"/>
  <!-- normalize → hub (the default path) -->
  <path d="M568,455 H586 V310 H600" class="flow" marker-end="url(#aB)"/>
  <!-- normalize → projection (dashed detour) → hub -->
  <path d="M442,518 V562" class="flow dash" marker-end="url(#aB)"/>
  <text x="452" y="547" class="n10">with a components file</text>
  <path d="M568,640 H594 V400 H600" class="flow dash" marker-end="url(#aB)"/>
  <!-- hub ↔ state ↔ persist -->
  <line x1="746" y1="458" x2="746" y2="482" class="flow" marker-start="url(#aB)" marker-end="url(#aB)"/>
  <text x="756" y="474" class="n10">lives in</text>
  <line x1="746" y1="648" x2="746" y2="672" class="flow" marker-start="url(#aB)" marker-end="url(#aB)"/>
  <text x="756" y="664" class="n10">save/load</text>
  <!-- hub → workbench (reads) · workbench → hub (writes back, red) -->
  <path d="M884,230 H916" class="flow" marker-end="url(#aB)"/>
  <path d="M916,262 H892" stroke="#EB1A26" stroke-width="2.5" fill="none" marker-end="url(#aR)"/>
  <!-- workbench → plot -->
  <path d="M1224,230 H1256" class="flow" marker-end="url(#aB)"/>
  <!-- workbench → detail panel -->
  <path d="M1074,320 V462" class="flow dash" marker-end="url(#aB)"/>
  <text x="1086" y="398" class="n10">in detail</text>

  <!-- footer -->
  <text x="32" y="992" class="n10">source: frontend/src — parse.ts · table.ts · engine.ts · pca.ts · cluster.ts · workspaces.ts · page.tsx</text>
  <text x="1480" y="992" text-anchor="end" class="n10">scatter-lab.vercel.app</text>
</svg>
